<svg width="40" height="40" viewBox="0 0 40 40" fill="none" xmlns="http://www.w3.org/2000/svg">
<rect width="40" height="40" rx="20" fill="#233ECC"/>
<path d="M15.045 16.297C15.1083 15.0303 15.5517 14.055 16.375 13.371C17.211 12.6743 18.3067 12.326 19.662 12.326C20.5867 12.326 21.3783 12.4907 22.037 12.82C22.6957 13.1367 23.1897 13.5737 23.519 14.131C23.861 14.6757 24.032 15.2963 24.032 15.993C24.032 16.791 23.823 17.4687 23.405 18.026C22.9997 18.5707 22.512 18.938 21.942 19.128V19.204C22.6767 19.432 23.2467 19.8373 23.652 20.42C24.07 21.0027 24.279 21.75 24.279 22.662C24.279 23.422 24.1017 24.0997 23.747 24.695C23.405 25.2903 22.892 25.759 22.208 26.101C21.5367 26.4303 20.726 26.595 19.776 26.595C18.3447 26.595 17.1793 26.234 16.28 25.512C15.3807 24.79 14.9057 23.726 14.855 22.32H17.439C17.4643 22.9407 17.6733 23.441 18.066 23.821C18.4713 24.1883 19.0223 24.372 19.719 24.372C20.365 24.372 20.859 24.1947 21.201 23.84C21.5557 23.4727 21.733 23.004 21.733 22.434C21.733 21.674 21.4923 21.1293 21.011 20.8C20.5297 20.4707 19.7823 20.306 18.769 20.306H18.218V18.121H18.769C20.5677 18.121 21.467 17.5193 21.467 16.316C21.467 15.7713 21.3023 15.347 20.973 15.043C20.6563 14.739 20.194 14.587 19.586 14.587C18.9907 14.587 18.5283 14.7517 18.199 15.081C17.8823 15.3977 17.6987 15.803 17.648 16.297H15.045Z" fill="white"/>
</svg>
