<svg width="40" height="40" viewBox="0 0 40 40" fill="none" xmlns="http://www.w3.org/2000/svg">
<rect width="40" height="40" rx="20" fill="#FA9131"/>
<path d="M16.343 23.498C17.559 22.4847 18.528 21.6423 19.25 20.971C19.972 20.287 20.5737 19.5777 21.055 18.843C21.5363 18.1083 21.777 17.3863 21.777 16.677C21.777 16.031 21.625 15.5243 21.321 15.157C21.017 14.7897 20.5483 14.606 19.915 14.606C19.2817 14.606 18.794 14.8213 18.452 15.252C18.11 15.67 17.9327 16.2463 17.92 16.981H15.336C15.3867 15.461 15.8363 14.3083 16.685 13.523C17.5463 12.7377 18.6357 12.345 19.953 12.345C21.397 12.345 22.5053 12.7313 23.278 13.504C24.0507 14.264 24.437 15.271 24.437 16.525C24.437 17.513 24.171 18.4567 23.639 19.356C23.107 20.2553 22.499 21.0407 21.815 21.712C21.131 22.3707 20.238 23.1687 19.136 24.106H24.741V26.31H15.355V24.334L16.343 23.498Z" fill="white"/>
</svg>
