<svg width="40" height="40" viewBox="0 0 40 40" fill="none" xmlns="http://www.w3.org/2000/svg">
<rect width="40" height="40" rx="20" fill="#823EE1"/>
<path d="M23.817 14.948H17.661V18.197C17.927 17.8677 18.307 17.6017 18.801 17.399C19.295 17.1837 19.8207 17.076 20.378 17.076C21.3913 17.076 22.221 17.2977 22.867 17.741C23.513 18.1843 23.9817 18.7543 24.273 19.451C24.5643 20.135 24.71 20.8697 24.71 21.655C24.71 23.1117 24.292 24.2833 23.456 25.17C22.6327 26.0567 21.4547 26.5 19.922 26.5C18.478 26.5 17.3253 26.139 16.464 25.417C15.6027 24.695 15.115 23.7513 15.001 22.586H17.585C17.699 23.0927 17.9523 23.498 18.345 23.802C18.7503 24.106 19.2633 24.258 19.884 24.258C20.6313 24.258 21.195 24.0237 21.575 23.555C21.955 23.0863 22.145 22.4657 22.145 21.693C22.145 20.9077 21.9487 20.3123 21.556 19.907C21.176 19.489 20.6123 19.28 19.865 19.28C19.333 19.28 18.8897 19.413 18.535 19.679C18.1803 19.945 17.927 20.2997 17.775 20.743H15.229V12.611H23.817V14.948Z" fill="white"/>
</svg>
